<?xml version="1.0" encoding="UTF-8" standalone="no" ?>
<!DOCTYPE svg PUBLIC "-//W3C//DTD SVG 1.0//EN"
         "http://www.w3.org/TR/2001/REC-SVG-20010904/DTD/svg10.dtd">
<svg version="1.0"   
         xmlns="http://www.w3.org/2000/svg"
         xmlns:xlink="http://www.w3.org/1999/xlink"
         viewBox="-1 0 2 1"
         preserveAspectRatio="none meet"
         width="660" height="572">
<title>Graph of 'Tower of Hanoi' (Level 7)</title>
<defs>
<g id="L1">
	<path d="M1,1 H-1 L0,0 z" stroke="#e00000" />
	<g transform='scale(1.5,1)' fill='black'>
		<circle r='0.1' cx='0' cy='0'/>
		<circle r='0.1' cx='-0.666666' cy='1'/>
		<circle r='0.1' cx= '0.666666' cy='1'/>
	</g>	
</g>
<path id="L1-" d="M1,1 H-1 L0,0 z" fill='black' stroke='red'/>
<g id="L2">
	<path stroke="#c0c000" d="M-1,1 l-1,1 M1,1 l1,1 M-1,3 l2,0" />
	<use xlink:href="#L1" />
	<use xlink:href="#L1" transform="translate(-2,2)"/>
	<use xlink:href="#L1" transform="translate(2,2)"/>
</g>
<g id="L3">
	<path stroke="#0040ff" d="M-3,3 l-1,1 M3,3 l1,1 M-1,7 l2,0" />
	<use xlink:href="#L2" />
	<use xlink:href="#L2" transform="translate(-4,4)"/>
	<use xlink:href="#L2" transform="translate(4,4)"/>
</g>
<g id="L4">
	<path stroke="#ff8000" d="M-7,7 l-1,1 M7,7 l1,1 M-1,15 l2,0" />
	<use xlink:href="#L3" />
	<use xlink:href="#L3" transform="translate(-8,8)"/>
	<use xlink:href="#L3" transform="translate(8,8)"/>
</g>
<g id="L5">
	<path stroke="#00c000" d="M-15,15 l-1,1 M15,15 l1,1 M-1,31 l2,0" />
	<use xlink:href="#L4" />
	<use xlink:href="#L4" transform="translate(-16,16)"/>
	<use xlink:href="#L4" transform="translate(16,16)"/>
</g>
<g id="L6">
	<path stroke="#00c0c0" d="M-31,31 l-1,1 M31,31 l1,1 M-1,63 l2,0" />
	<use xlink:href="#L5" />
	<use xlink:href="#L5" transform="translate(-32,32)"/>
	<use xlink:href="#L5" transform="translate(32,32)"/>
</g>
<g id="L7">
	<path stroke="#c000d0" d="M-63,63 l-1,1 M63,63 l1,1 M-1,127 l2,0" />
	<use xlink:href="#L6" />
	<use xlink:href="#L6" transform="translate(-64,64)"/>
	<use xlink:href="#L6" transform="translate(64,64)"/>
</g>
</defs>
<rect fill='white' x='-2' y='0' width='4' height='2' />

<g id="S7" transform='scale(0.007751937984496124,0.007751937984496124) translate(0,1)' >
	<use xlink:href="#L7" stroke-width='0.3' fill='none' />
</g>
</svg>
